# xmcd CD database file
#
# Track frame offsets:
#	183
#	16118
#	30193
#	44268
#	60283
#	81785
#	93868
#	104568
#	118175
#	130695
#	147073
#	166145
#	180020
#	191758
#	213108
#	227995
#	241158
#	253408
#	272083
#	281808
#
# Disc length: 3955 seconds
#
# Revision: 3
# Processed by: cddbd v1.5.2PL0 Copyright (c) Steve Scherf et al.
# Submitted via: CDex 1.51
#
DISCID=050f7114
DTITLE=Various Artist - Country Love Songs
DYEAR=1990
DGENRE=Country
TTITLE0=Angel In Disguise - Earl Thomas Conley
TTITLE1=I Fell In Love Again Last Night - Forester Sisters
TTITLE2=I Always Get Lucky With You - George Jones
TTITLE3=You're Getting To Me Again - Lorrie Morgan
TTITLE4=Wind Beneath My Wings - Gary Morris
TTITLE5=You've Got A Good Love Comin' - Lee Greenwood
TTITLE6=I've Never Loved Anyone More - Lynn Anderson
TTITLE7=I Loved 'em Every One - T.G. Sheppard
TTITLE8=Love Me With All Your Heart (Cuando Caliente El Sol) - Johnny Rodriguez
TTITLE9=Nothing Sure Looked Good On You - Gene Watson
TTITLE10=Secret Love - Freddy Fender
TTITLE11=All Tangled Up In Love - Gus Hardin
TTITLE12=I Believe In You - Mel Tillis
TTITLE13=Baby I'm Yours - Tanya Tucker
TTITLE14=As Long As I'm Rockin' With You - Kieran Kane
TTITLE15=It's What You Don't Do - Patty Loveless
TTITLE16=It's A Lovely, Lovely World - Gail Davies
TTITLE17=Let's Take It Nice And Easy - Charlie Rich
TTITLE18=Because I Love You That's Why - Connie Smith
TTITLE19=You're The Best Break This Old Heart Ever Had - Ed Bruce and Lynn Anderson
EXTD=YEAR: 1990
EXTT0=
EXTT1=
EXTT2=
EXTT3=
EXTT4=
EXTT5=
EXTT6=
EXTT7=
EXTT8=
EXTT9=
EXTT10=
EXTT11=
EXTT12=
EXTT13=
EXTT14=
EXTT15=
EXTT16=
EXTT17=
EXTT18=
EXTT19=
PLAYORDER=
